solid 
   facet normal 9.868856e-01 -1.614214e-01 0.000000e+00
      outer loop
         vertex 5.407186e+02 2.008252e+02 0.000000e+00
         vertex 5.730801e+02 3.986748e+02 0.000000e+00
         vertex 5.730801e+02 3.986748e+02 5.961564e+02
      endloop
   endfacet
   facet normal 9.868856e-01 -1.614214e-01 0.000000e+00
      outer loop
         vertex 5.407186e+02 2.008252e+02 0.000000e+00
         vertex 5.730801e+02 3.986748e+02 5.961564e+02
         vertex 5.407186e+02 2.008252e+02 5.961564e+02
      endloop
   endfacet
   facet normal 6.332377e-01 7.739573e-01 -0.000000e+00
      outer loop
         vertex 5.730801e+02 3.986748e+02 5.961564e+02
         vertex 5.730801e+02 3.986748e+02 0.000000e+00
         vertex 4.179181e+02 5.256256e+02 0.000000e+00
      endloop
   endfacet
   facet normal 6.332377e-01 7.739573e-01 -0.000000e+00
      outer loop
         vertex 5.730801e+02 3.986748e+02 5.961564e+02
         vertex 4.179181e+02 5.256256e+02 0.000000e+00
         vertex 4.179181e+02 5.256256e+02 5.961564e+02
      endloop
   endfacet
   facet normal -3.536477e-01 9.353787e-01 0.000000e+00
      outer loop
         vertex 4.179181e+02 5.256256e+02 5.961564e+02
         vertex 4.179181e+02 5.256256e+02 0.000000e+00
         vertex 2.303944e+02 4.547267e+02 0.000000e+00
      endloop
   endfacet
   facet normal -3.536477e-01 9.353787e-01 0.000000e+00
      outer loop
         vertex 4.179181e+02 5.256256e+02 5.961564e+02
         vertex 2.303944e+02 4.547267e+02 0.000000e+00
         vertex 2.303944e+02 4.547267e+02 5.961564e+02
      endloop
   endfacet
   facet normal -9.868856e-01 1.614214e-01 0.000000e+00
      outer loop
         vertex 2.303944e+02 4.547267e+02 5.961564e+02
         vertex 2.303944e+02 4.547267e+02 0.000000e+00
         vertex 1.980328e+02 2.568770e+02 0.000000e+00
      endloop
   endfacet
   facet normal -9.868856e-01 1.614214e-01 0.000000e+00
      outer loop
         vertex 2.303944e+02 4.547267e+02 5.961564e+02
         vertex 1.980328e+02 2.568770e+02 0.000000e+00
         vertex 1.980328e+02 2.568770e+02 5.961564e+02
      endloop
   endfacet
   facet normal -6.332377e-01 -7.739573e-01 0.000000e+00
      outer loop
         vertex 1.980328e+02 2.568770e+02 5.961564e+02
         vertex 1.980328e+02 2.568770e+02 0.000000e+00
         vertex 3.531949e+02 1.299263e+02 0.000000e+00
      endloop
   endfacet
   facet normal -6.332377e-01 -7.739573e-01 0.000000e+00
      outer loop
         vertex 1.980328e+02 2.568770e+02 5.961564e+02
         vertex 3.531949e+02 1.299263e+02 0.000000e+00
         vertex 3.531949e+02 1.299263e+02 5.961564e+02
      endloop
   endfacet
   facet normal 3.536477e-01 -9.353787e-01 0.000000e+00
      outer loop
         vertex 3.531949e+02 1.299263e+02 5.961564e+02
         vertex 3.531949e+02 1.299263e+02 0.000000e+00
         vertex 5.407186e+02 2.008252e+02 0.000000e+00
      endloop
   endfacet
   facet normal 3.536477e-01 -9.353787e-01 0.000000e+00
      outer loop
         vertex 3.531949e+02 1.299263e+02 5.961564e+02
         vertex 5.407186e+02 2.008252e+02 0.000000e+00
         vertex 5.407186e+02 2.008252e+02 5.961564e+02
      endloop
   endfacet
   facet normal 0.000000e+00 0.000000e+00 1.000000e+00
      outer loop
         vertex 3.531949e+02 1.299263e+02 5.961564e+02
         vertex 5.407186e+02 2.008252e+02 5.961564e+02
         vertex 1.980328e+02 2.568770e+02 5.961564e+02
      endloop
   endfacet
   facet normal 0.000000e+00 0.000000e+00 1.000000e+00
      outer loop
         vertex 5.407186e+02 2.008252e+02 5.961564e+02
         vertex 5.730801e+02 3.986748e+02 5.961564e+02
         vertex 1.980328e+02 2.568770e+02 5.961564e+02
      endloop
   endfacet
   facet normal 0.000000e+00 0.000000e+00 1.000000e+00
      outer loop
         vertex 1.980328e+02 2.568770e+02 5.961564e+02
         vertex 5.730801e+02 3.986748e+02 5.961564e+02
         vertex 2.303944e+02 4.547267e+02 5.961564e+02
      endloop
   endfacet
   facet normal 0.000000e+00 0.000000e+00 1.000000e+00
      outer loop
         vertex 5.730801e+02 3.986748e+02 5.961564e+02
         vertex 4.179181e+02 5.256256e+02 5.961564e+02
         vertex 2.303944e+02 4.547267e+02 5.961564e+02
      endloop
   endfacet
   facet normal 0.000000e+00 0.000000e+00 -1.000000e+00
      outer loop
         vertex 5.730801e+02 3.986748e+02 0.000000e+00
         vertex 5.407186e+02 2.008252e+02 0.000000e+00
         vertex 4.179181e+02 5.256256e+02 0.000000e+00
      endloop
   endfacet
   facet normal 0.000000e+00 0.000000e+00 -1.000000e+00
      outer loop
         vertex 5.407186e+02 2.008252e+02 0.000000e+00
         vertex 3.531949e+02 1.299263e+02 0.000000e+00
         vertex 4.179181e+02 5.256256e+02 0.000000e+00
      endloop
   endfacet
   facet normal 0.000000e+00 0.000000e+00 -1.000000e+00
      outer loop
         vertex 4.179181e+02 5.256256e+02 0.000000e+00
         vertex 3.531949e+02 1.299263e+02 0.000000e+00
         vertex 2.303944e+02 4.547267e+02 0.000000e+00
      endloop
   endfacet
   facet normal 0.000000e+00 0.000000e+00 -1.000000e+00
      outer loop
         vertex 3.531949e+02 1.299263e+02 0.000000e+00
         vertex 1.980328e+02 2.568770e+02 0.000000e+00
         vertex 2.303944e+02 4.547267e+02 0.000000e+00
      endloop
   endfacet
endsolid
solid 
   facet normal 9.935147e-01 -1.137037e-01 0.000000e+00
      outer loop
         vertex 5.139191e+02 2.780485e+02 -7.501948e+00
         vertex 5.139191e+02 2.780485e+02 -2.828743e+02
         vertex 5.187938e+02 3.206418e+02 -2.828743e+02
      endloop
   endfacet
   facet normal 9.935147e-01 -1.137037e-01 0.000000e+00
      outer loop
         vertex 5.139191e+02 2.780485e+02 -7.501948e+00
         vertex 5.187938e+02 3.206418e+02 -2.828743e+02
         vertex 5.187938e+02 3.206418e+02 -7.501948e+00
      endloop
   endfacet
   facet normal 5.952270e-01 8.035576e-01 -0.000000e+00
      outer loop
         vertex 5.187938e+02 3.206418e+02 -7.501948e+00
         vertex 5.187938e+02 3.206418e+02 -2.828743e+02
         vertex 4.843441e+02 3.461601e+02 -2.828743e+02
      endloop
   endfacet
   facet normal 5.952270e-01 8.035576e-01 -0.000000e+00
      outer loop
         vertex 5.187938e+02 3.206418e+02 -7.501948e+00
         vertex 4.843441e+02 3.461601e+02 -2.828743e+02
         vertex 4.843441e+02 3.461601e+02 -7.501948e+00
      endloop
   endfacet
   facet normal -3.982867e-01 9.172610e-01 0.000000e+00
      outer loop
         vertex 4.843441e+02 3.461601e+02 -7.501948e+00
         vertex 4.843441e+02 3.461601e+02 -2.828743e+02
         vertex 4.450199e+02 3.290850e+02 -2.828743e+02
      endloop
   endfacet
   facet normal -3.982867e-01 9.172610e-01 0.000000e+00
      outer loop
         vertex 4.843441e+02 3.461601e+02 -7.501948e+00
         vertex 4.450199e+02 3.290850e+02 -2.828743e+02
         vertex 4.450199e+02 3.290850e+02 -7.501948e+00
      endloop
   endfacet
   facet normal -9.935147e-01 1.137037e-01 0.000000e+00
      outer loop
         vertex 4.450199e+02 3.290850e+02 -7.501948e+00
         vertex 4.450199e+02 3.290850e+02 -2.828743e+02
         vertex 4.401452e+02 2.864916e+02 -2.828743e+02
      endloop
   endfacet
   facet normal -9.935147e-01 1.137037e-01 0.000000e+00
      outer loop
         vertex 4.450199e+02 3.290850e+02 -7.501948e+00
         vertex 4.401452e+02 2.864916e+02 -2.828743e+02
         vertex 4.401452e+02 2.864916e+02 -7.501948e+00
      endloop
   endfacet
   facet normal -5.952278e-01 -8.035570e-01 0.000000e+00
      outer loop
         vertex 4.401452e+02 2.864916e+02 -7.501948e+00
         vertex 4.401452e+02 2.864916e+02 -2.828743e+02
         vertex 4.745948e+02 2.609734e+02 -2.828743e+02
      endloop
   endfacet
   facet normal -5.952278e-01 -8.035570e-01 0.000000e+00
      outer loop
         vertex 4.401452e+02 2.864916e+02 -7.501948e+00
         vertex 4.745948e+02 2.609734e+02 -2.828743e+02
         vertex 4.745948e+02 2.609734e+02 -7.501948e+00
      endloop
   endfacet
   facet normal 3.982871e-01 -9.172608e-01 0.000000e+00
      outer loop
         vertex 4.745948e+02 2.609734e+02 -7.501948e+00
         vertex 4.745948e+02 2.609734e+02 -2.828743e+02
         vertex 5.139191e+02 2.780485e+02 -2.828743e+02
      endloop
   endfacet
   facet normal 3.982871e-01 -9.172608e-01 0.000000e+00
      outer loop
         vertex 4.745948e+02 2.609734e+02 -7.501948e+00
         vertex 5.139191e+02 2.780485e+02 -2.828743e+02
         vertex 5.139191e+02 2.780485e+02 -7.501948e+00
      endloop
   endfacet
   facet normal 0.000000e+00 0.000000e+00 1.000000e+00
      outer loop
         vertex 4.745948e+02 2.609734e+02 -7.501948e+00
         vertex 5.139191e+02 2.780485e+02 -7.501948e+00
         vertex 4.401452e+02 2.864916e+02 -7.501948e+00
      endloop
   endfacet
   facet normal 0.000000e+00 0.000000e+00 1.000000e+00
      outer loop
         vertex 5.139191e+02 2.780485e+02 -7.501948e+00
         vertex 5.187938e+02 3.206418e+02 -7.501948e+00
         vertex 4.401452e+02 2.864916e+02 -7.501948e+00
      endloop
   endfacet
   facet normal 0.000000e+00 0.000000e+00 1.000000e+00
      outer loop
         vertex 4.401452e+02 2.864916e+02 -7.501948e+00
         vertex 5.187938e+02 3.206418e+02 -7.501948e+00
         vertex 4.450199e+02 3.290850e+02 -7.501948e+00
      endloop
   endfacet
   facet normal 0.000000e+00 0.000000e+00 1.000000e+00
      outer loop
         vertex 5.187938e+02 3.206418e+02 -7.501948e+00
         vertex 4.843441e+02 3.461601e+02 -7.501948e+00
         vertex 4.450199e+02 3.290850e+02 -7.501948e+00
      endloop
   endfacet
   facet normal 0.000000e+00 0.000000e+00 -1.000000e+00
      outer loop
         vertex 5.187938e+02 3.206418e+02 -2.828743e+02
         vertex 5.139191e+02 2.780485e+02 -2.828743e+02
         vertex 4.843441e+02 3.461601e+02 -2.828743e+02
      endloop
   endfacet
   facet normal 0.000000e+00 0.000000e+00 -1.000000e+00
      outer loop
         vertex 5.139191e+02 2.780485e+02 -2.828743e+02
         vertex 4.745948e+02 2.609734e+02 -2.828743e+02
         vertex 4.843441e+02 3.461601e+02 -2.828743e+02
      endloop
   endfacet
   facet normal 0.000000e+00 0.000000e+00 -1.000000e+00
      outer loop
         vertex 4.843441e+02 3.461601e+02 -2.828743e+02
         vertex 4.745948e+02 2.609734e+02 -2.828743e+02
         vertex 4.450199e+02 3.290850e+02 -2.828743e+02
      endloop
   endfacet
   facet normal 0.000000e+00 0.000000e+00 -1.000000e+00
      outer loop
         vertex 4.745948e+02 2.609734e+02 -2.828743e+02
         vertex 4.401452e+02 2.864916e+02 -2.828743e+02
         vertex 4.450199e+02 3.290850e+02 -2.828743e+02
      endloop
   endfacet
endsolid
solid 
   facet normal 9.935147e-01 -1.137037e-01 0.000000e+00
      outer loop
         vertex 6.336625e+02 2.673063e+02 5.191827e+02
         vertex 6.336625e+02 2.673063e+02 2.438103e+02
         vertex 6.385372e+02 3.098997e+02 2.438103e+02
      endloop
   endfacet
   facet normal 9.935147e-01 -1.137037e-01 0.000000e+00
      outer loop
         vertex 6.336625e+02 2.673063e+02 5.191827e+02
         vertex 6.385372e+02 3.098997e+02 2.438103e+02
         vertex 6.385372e+02 3.098997e+02 5.191827e+02
      endloop
   endfacet
   facet normal 5.952277e-01 8.035571e-01 -0.000000e+00
      outer loop
         vertex 6.385372e+02 3.098997e+02 5.191827e+02
         vertex 6.385372e+02 3.098997e+02 2.438103e+02
         vertex 6.040876e+02 3.354179e+02 2.438103e+02
      endloop
   endfacet
   facet normal 5.952277e-01 8.035571e-01 -0.000000e+00
      outer loop
         vertex 6.385372e+02 3.098997e+02 5.191827e+02
         vertex 6.040876e+02 3.354179e+02 2.438103e+02
         vertex 6.040876e+02 3.354179e+02 5.191827e+02
      endloop
   endfacet
   facet normal -3.982865e-01 9.172611e-01 0.000000e+00
      outer loop
         vertex 6.040876e+02 3.354179e+02 5.191827e+02
         vertex 6.040876e+02 3.354179e+02 2.438103e+02
         vertex 5.647633e+02 3.183428e+02 2.438103e+02
      endloop
   endfacet
   facet normal -3.982865e-01 9.172611e-01 0.000000e+00
      outer loop
         vertex 6.040876e+02 3.354179e+02 5.191827e+02
         vertex 5.647633e+02 3.183428e+02 2.438103e+02
         vertex 5.647633e+02 3.183428e+02 5.191827e+02
      endloop
   endfacet
   facet normal -9.935147e-01 1.137037e-01 0.000000e+00
      outer loop
         vertex 5.647633e+02 3.183428e+02 5.191827e+02
         vertex 5.647633e+02 3.183428e+02 2.438103e+02
         vertex 5.598887e+02 2.757494e+02 2.438103e+02
      endloop
   endfacet
   facet normal -9.935147e-01 1.137037e-01 0.000000e+00
      outer loop
         vertex 5.647633e+02 3.183428e+02 5.191827e+02
         vertex 5.598887e+02 2.757494e+02 2.438103e+02
         vertex 5.598887e+02 2.757494e+02 5.191827e+02
      endloop
   endfacet
   facet normal -5.952272e-01 -8.035574e-01 0.000000e+00
      outer loop
         vertex 5.598887e+02 2.757494e+02 5.191827e+02
         vertex 5.598887e+02 2.757494e+02 2.438103e+02
         vertex 5.943383e+02 2.502312e+02 2.438103e+02
      endloop
   endfacet
   facet normal -5.952272e-01 -8.035574e-01 0.000000e+00
      outer loop
         vertex 5.598887e+02 2.757494e+02 5.191827e+02
         vertex 5.943383e+02 2.502312e+02 2.438103e+02
         vertex 5.943383e+02 2.502312e+02 5.191827e+02
      endloop
   endfacet
   facet normal 3.982873e-01 -9.172607e-01 0.000000e+00
      outer loop
         vertex 5.943383e+02 2.502312e+02 5.191827e+02
         vertex 5.943383e+02 2.502312e+02 2.438103e+02
         vertex 6.336625e+02 2.673063e+02 2.438103e+02
      endloop
   endfacet
   facet normal 3.982873e-01 -9.172607e-01 0.000000e+00
      outer loop
         vertex 5.943383e+02 2.502312e+02 5.191827e+02
         vertex 6.336625e+02 2.673063e+02 2.438103e+02
         vertex 6.336625e+02 2.673063e+02 5.191827e+02
      endloop
   endfacet
   facet normal 0.000000e+00 0.000000e+00 1.000000e+00
      outer loop
         vertex 5.943383e+02 2.502312e+02 5.191827e+02
         vertex 6.336625e+02 2.673063e+02 5.191827e+02
         vertex 5.598887e+02 2.757494e+02 5.191827e+02
      endloop
   endfacet
   facet normal 0.000000e+00 0.000000e+00 1.000000e+00
      outer loop
         vertex 6.336625e+02 2.673063e+02 5.191827e+02
         vertex 6.385372e+02 3.098997e+02 5.191827e+02
         vertex 5.598887e+02 2.757494e+02 5.191827e+02
      endloop
   endfacet
   facet normal 0.000000e+00 0.000000e+00 1.000000e+00
      outer loop
         vertex 5.598887e+02 2.757494e+02 5.191827e+02
         vertex 6.385372e+02 3.098997e+02 5.191827e+02
         vertex 5.647633e+02 3.183428e+02 5.191827e+02
      endloop
   endfacet
   facet normal 0.000000e+00 0.000000e+00 1.000000e+00
      outer loop
         vertex 6.385372e+02 3.098997e+02 5.191827e+02
         vertex 6.040876e+02 3.354179e+02 5.191827e+02
         vertex 5.647633e+02 3.183428e+02 5.191827e+02
      endloop
   endfacet
   facet normal 0.000000e+00 0.000000e+00 -1.000000e+00
      outer loop
         vertex 6.385372e+02 3.098997e+02 2.438103e+02
         vertex 6.336625e+02 2.673063e+02 2.438103e+02
         vertex 6.040876e+02 3.354179e+02 2.438103e+02
      endloop
   endfacet
   facet normal 0.000000e+00 0.000000e+00 -1.000000e+00
      outer loop
         vertex 6.336625e+02 2.673063e+02 2.438103e+02
         vertex 5.943383e+02 2.502312e+02 2.438103e+02
         vertex 6.040876e+02 3.354179e+02 2.438103e+02
      endloop
   endfacet
   facet normal 0.000000e+00 0.000000e+00 -1.000000e+00
      outer loop
         vertex 6.040876e+02 3.354179e+02 2.438103e+02
         vertex 5.943383e+02 2.502312e+02 2.438103e+02
         vertex 5.647633e+02 3.183428e+02 2.438103e+02
      endloop
   endfacet
   facet normal 0.000000e+00 0.000000e+00 -1.000000e+00
      outer loop
         vertex 5.943383e+02 2.502312e+02 2.438103e+02
         vertex 5.598887e+02 2.757494e+02 2.438103e+02
         vertex 5.647633e+02 3.183428e+02 2.438103e+02
      endloop
   endfacet
endsolid
solid 
   facet normal 9.935147e-01 -1.137037e-01 0.000000e+00
      outer loop
         vertex 1.973517e+02 3.448488e+02 5.212197e+02
         vertex 1.973517e+02 3.448488e+02 2.458473e+02
         vertex 2.022264e+02 3.874422e+02 2.458473e+02
      endloop
   endfacet
   facet normal 9.935147e-01 -1.137037e-01 0.000000e+00
      outer loop
         vertex 1.973517e+02 3.448488e+02 5.212197e+02
         vertex 2.022264e+02 3.874422e+02 2.458473e+02
         vertex 2.022264e+02 3.874422e+02 5.212197e+02
      endloop
   endfacet
   facet normal 5.952278e-01 8.035570e-01 -0.000000e+00
      outer loop
         vertex 2.022264e+02 3.874422e+02 5.212197e+02
         vertex 2.022264e+02 3.874422e+02 2.458473e+02
         vertex 1.677767e+02 4.129604e+02 2.458473e+02
      endloop
   endfacet
   facet normal 5.952278e-01 8.035570e-01 -0.000000e+00
      outer loop
         vertex 2.022264e+02 3.874422e+02 5.212197e+02
         vertex 1.677767e+02 4.129604e+02 2.458473e+02
         vertex 1.677767e+02 4.129604e+02 5.212197e+02
      endloop
   endfacet
   facet normal -3.982873e-01 9.172607e-01 0.000000e+00
      outer loop
         vertex 1.677767e+02 4.129604e+02 5.212197e+02
         vertex 1.677767e+02 4.129604e+02 2.458473e+02
         vertex 1.284525e+02 3.958853e+02 2.458473e+02
      endloop
   endfacet
   facet normal -3.982873e-01 9.172607e-01 0.000000e+00
      outer loop
         vertex 1.677767e+02 4.129604e+02 5.212197e+02
         vertex 1.284525e+02 3.958853e+02 2.458473e+02
         vertex 1.284525e+02 3.958853e+02 5.212197e+02
      endloop
   endfacet
   facet normal -9.935147e-01 1.137035e-01 0.000000e+00
      outer loop
         vertex 1.284525e+02 3.958853e+02 5.212197e+02
         vertex 1.284525e+02 3.958853e+02 2.458473e+02
         vertex 1.235779e+02 3.532920e+02 2.458473e+02
      endloop
   endfacet
   facet normal -9.935147e-01 1.137035e-01 0.000000e+00
      outer loop
         vertex 1.284525e+02 3.958853e+02 5.212197e+02
         vertex 1.235779e+02 3.532920e+02 2.458473e+02
         vertex 1.235779e+02 3.532920e+02 5.212197e+02
      endloop
   endfacet
   facet normal -5.952274e-01 -8.035573e-01 0.000000e+00
      outer loop
         vertex 1.235779e+02 3.532920e+02 5.212197e+02
         vertex 1.235779e+02 3.532920e+02 2.458473e+02
         vertex 1.580275e+02 3.277737e+02 2.458473e+02
      endloop
   endfacet
   facet normal -5.952274e-01 -8.035573e-01 0.000000e+00
      outer loop
         vertex 1.235779e+02 3.532920e+02 5.212197e+02
         vertex 1.580275e+02 3.277737e+02 2.458473e+02
         vertex 1.580275e+02 3.277737e+02 5.212197e+02
      endloop
   endfacet
   facet normal 3.982867e-01 -9.172610e-01 0.000000e+00
      outer loop
         vertex 1.580275e+02 3.277737e+02 5.212197e+02
         vertex 1.580275e+02 3.277737e+02 2.458473e+02
         vertex 1.973517e+02 3.448488e+02 2.458473e+02
      endloop
   endfacet
   facet normal 3.982867e-01 -9.172610e-01 0.000000e+00
      outer loop
         vertex 1.580275e+02 3.277737e+02 5.212197e+02
         vertex 1.973517e+02 3.448488e+02 2.458473e+02
         vertex 1.973517e+02 3.448488e+02 5.212197e+02
      endloop
   endfacet
   facet normal 0.000000e+00 0.000000e+00 1.000000e+00
      outer loop
         vertex 1.580275e+02 3.277737e+02 5.212197e+02
         vertex 1.973517e+02 3.448488e+02 5.212197e+02
         vertex 1.235779e+02 3.532920e+02 5.212197e+02
      endloop
   endfacet
   facet normal 0.000000e+00 0.000000e+00 1.000000e+00
      outer loop
         vertex 1.973517e+02 3.448488e+02 5.212197e+02
         vertex 2.022264e+02 3.874422e+02 5.212197e+02
         vertex 1.235779e+02 3.532920e+02 5.212197e+02
      endloop
   endfacet
   facet normal 0.000000e+00 0.000000e+00 1.000000e+00
      outer loop
         vertex 1.235779e+02 3.532920e+02 5.212197e+02
         vertex 2.022264e+02 3.874422e+02 5.212197e+02
         vertex 1.284525e+02 3.958853e+02 5.212197e+02
      endloop
   endfacet
   facet normal 0.000000e+00 0.000000e+00 1.000000e+00
      outer loop
         vertex 2.022264e+02 3.874422e+02 5.212197e+02
         vertex 1.677767e+02 4.129604e+02 5.212197e+02
         vertex 1.284525e+02 3.958853e+02 5.212197e+02
      endloop
   endfacet
   facet normal 0.000000e+00 0.000000e+00 -1.000000e+00
      outer loop
         vertex 2.022264e+02 3.874422e+02 2.458473e+02
         vertex 1.973517e+02 3.448488e+02 2.458473e+02
         vertex 1.677767e+02 4.129604e+02 2.458473e+02
      endloop
   endfacet
   facet normal 0.000000e+00 0.000000e+00 -1.000000e+00
      outer loop
         vertex 1.973517e+02 3.448488e+02 2.458473e+02
         vertex 1.580275e+02 3.277737e+02 2.458473e+02
         vertex 1.677767e+02 4.129604e+02 2.458473e+02
      endloop
   endfacet
   facet normal 0.000000e+00 0.000000e+00 -1.000000e+00
      outer loop
         vertex 1.677767e+02 4.129604e+02 2.458473e+02
         vertex 1.580275e+02 3.277737e+02 2.458473e+02
         vertex 1.284525e+02 3.958853e+02 2.458473e+02
      endloop
   endfacet
   facet normal 0.000000e+00 0.000000e+00 -1.000000e+00
      outer loop
         vertex 1.580275e+02 3.277737e+02 2.458473e+02
         vertex 1.235779e+02 3.532920e+02 2.458473e+02
         vertex 1.284525e+02 3.958853e+02 2.458473e+02
      endloop
   endfacet
endsolid
solid 
   facet normal 9.935147e-01 -1.137037e-01 0.000000e+00
      outer loop
         vertex 3.047537e+02 3.108399e+02 -6.252308e+00
         vertex 3.047537e+02 3.108399e+02 -2.816247e+02
         vertex 3.096283e+02 3.534333e+02 -2.816247e+02
      endloop
   endfacet
   facet normal 9.935147e-01 -1.137037e-01 0.000000e+00
      outer loop
         vertex 3.047537e+02 3.108399e+02 -6.252308e+00
         vertex 3.096283e+02 3.534333e+02 -2.816247e+02
         vertex 3.096283e+02 3.534333e+02 -6.252308e+00
      endloop
   endfacet
   facet normal 5.952273e-01 8.035574e-01 -0.000000e+00
      outer loop
         vertex 3.096283e+02 3.534333e+02 -6.252308e+00
         vertex 3.096283e+02 3.534333e+02 -2.816247e+02
         vertex 2.751787e+02 3.789515e+02 -2.816247e+02
      endloop
   endfacet
   facet normal 5.952273e-01 8.035574e-01 -0.000000e+00
      outer loop
         vertex 3.096283e+02 3.534333e+02 -6.252308e+00
         vertex 2.751787e+02 3.789515e+02 -2.816247e+02
         vertex 2.751787e+02 3.789515e+02 -6.252308e+00
      endloop
   endfacet
   facet normal -3.982874e-01 9.172607e-01 0.000000e+00
      outer loop
         vertex 2.751787e+02 3.789515e+02 -6.252308e+00
         vertex 2.751787e+02 3.789515e+02 -2.816247e+02
         vertex 2.358545e+02 3.618763e+02 -2.816247e+02
      endloop
   endfacet
   facet normal -3.982874e-01 9.172607e-01 0.000000e+00
      outer loop
         vertex 2.751787e+02 3.789515e+02 -6.252308e+00
         vertex 2.358545e+02 3.618763e+02 -2.816247e+02
         vertex 2.358545e+02 3.618763e+02 -6.252308e+00
      endloop
   endfacet
   facet normal -9.935147e-01 1.137037e-01 0.000000e+00
      outer loop
         vertex 2.358545e+02 3.618763e+02 -6.252308e+00
         vertex 2.358545e+02 3.618763e+02 -2.816247e+02
         vertex 2.309798e+02 3.192830e+02 -2.816247e+02
      endloop
   endfacet
   facet normal -9.935147e-01 1.137037e-01 0.000000e+00
      outer loop
         vertex 2.358545e+02 3.618763e+02 -6.252308e+00
         vertex 2.309798e+02 3.192830e+02 -2.816247e+02
         vertex 2.309798e+02 3.192830e+02 -6.252308e+00
      endloop
   endfacet
   facet normal -5.952275e-01 -8.035572e-01 0.000000e+00
      outer loop
         vertex 2.309798e+02 3.192830e+02 -6.252308e+00
         vertex 2.309798e+02 3.192830e+02 -2.816247e+02
         vertex 2.654294e+02 2.937648e+02 -2.816247e+02
      endloop
   endfacet
   facet normal -5.952275e-01 -8.035572e-01 0.000000e+00
      outer loop
         vertex 2.309798e+02 3.192830e+02 -6.252308e+00
         vertex 2.654294e+02 2.937648e+02 -2.816247e+02
         vertex 2.654294e+02 2.937648e+02 -6.252308e+00
      endloop
   endfacet
   facet normal 3.982873e-01 -9.172607e-01 0.000000e+00
      outer loop
         vertex 2.654294e+02 2.937648e+02 -6.252308e+00
         vertex 2.654294e+02 2.937648e+02 -2.816247e+02
         vertex 3.047537e+02 3.108399e+02 -2.816247e+02
      endloop
   endfacet
   facet normal 3.982873e-01 -9.172607e-01 0.000000e+00
      outer loop
         vertex 2.654294e+02 2.937648e+02 -6.252308e+00
         vertex 3.047537e+02 3.108399e+02 -2.816247e+02
         vertex 3.047537e+02 3.108399e+02 -6.252308e+00
      endloop
   endfacet
   facet normal 0.000000e+00 0.000000e+00 1.000000e+00
      outer loop
         vertex 2.654294e+02 2.937648e+02 -6.252308e+00
         vertex 3.047537e+02 3.108399e+02 -6.252308e+00
         vertex 2.309798e+02 3.192830e+02 -6.252308e+00
      endloop
   endfacet
   facet normal 0.000000e+00 0.000000e+00 1.000000e+00
      outer loop
         vertex 3.047537e+02 3.108399e+02 -6.252308e+00
         vertex 3.096283e+02 3.534333e+02 -6.252308e+00
         vertex 2.309798e+02 3.192830e+02 -6.252308e+00
      endloop
   endfacet
   facet normal 0.000000e+00 0.000000e+00 1.000000e+00
      outer loop
         vertex 2.309798e+02 3.192830e+02 -6.252308e+00
         vertex 3.096283e+02 3.534333e+02 -6.252308e+00
         vertex 2.358545e+02 3.618763e+02 -6.252308e+00
      endloop
   endfacet
   facet normal 0.000000e+00 0.000000e+00 1.000000e+00
      outer loop
         vertex 3.096283e+02 3.534333e+02 -6.252308e+00
         vertex 2.751787e+02 3.789515e+02 -6.252308e+00
         vertex 2.358545e+02 3.618763e+02 -6.252308e+00
      endloop
   endfacet
   facet normal 0.000000e+00 0.000000e+00 -1.000000e+00
      outer loop
         vertex 3.096283e+02 3.534333e+02 -2.816247e+02
         vertex 3.047537e+02 3.108399e+02 -2.816247e+02
         vertex 2.751787e+02 3.789515e+02 -2.816247e+02
      endloop
   endfacet
   facet normal 0.000000e+00 0.000000e+00 -1.000000e+00
      outer loop
         vertex 3.047537e+02 3.108399e+02 -2.816247e+02
         vertex 2.654294e+02 2.937648e+02 -2.816247e+02
         vertex 2.751787e+02 3.789515e+02 -2.816247e+02
      endloop
   endfacet
   facet normal 0.000000e+00 0.000000e+00 -1.000000e+00
      outer loop
         vertex 2.751787e+02 3.789515e+02 -2.816247e+02
         vertex 2.654294e+02 2.937648e+02 -2.816247e+02
         vertex 2.358545e+02 3.618763e+02 -2.816247e+02
      endloop
   endfacet
   facet normal 0.000000e+00 0.000000e+00 -1.000000e+00
      outer loop
         vertex 2.654294e+02 2.937648e+02 -2.816247e+02
         vertex 2.309798e+02 3.192830e+02 -2.816247e+02
         vertex 2.358545e+02 3.618763e+02 -2.816247e+02
      endloop
   endfacet
endsolid
