solid 
   facet normal 0.000000e+00 0.000000e+00 -1.000000e+00
      outer loop
         vertex 5.672787e+02 8.168282e+01 2.842171e-14
         vertex 2.543177e+02 8.168282e+01 2.842171e-14
         vertex 2.543177e+02 3.733625e+02 2.842171e-14
      endloop
   endfacet
   facet normal 0.000000e+00 0.000000e+00 -1.000000e+00
      outer loop
         vertex 5.672787e+02 3.733625e+02 2.842171e-14
         vertex 5.672787e+02 8.168282e+01 2.842171e-14
         vertex 2.543177e+02 3.733625e+02 2.842171e-14
      endloop
   endfacet
   facet normal 0.000000e+00 0.000000e+00 1.000000e+00
      outer loop
         vertex 2.543177e+02 3.733625e+02 3.013338e+02
         vertex 2.543177e+02 8.168282e+01 3.013338e+02
         vertex 5.672787e+02 8.168282e+01 3.013338e+02
      endloop
   endfacet
   facet normal 0.000000e+00 -0.000000e+00 1.000000e+00
      outer loop
         vertex 2.543177e+02 3.733625e+02 3.013338e+02
         vertex 5.672787e+02 8.168282e+01 3.013338e+02
         vertex 5.672787e+02 3.733625e+02 3.013338e+02
      endloop
   endfacet
   facet normal 0.000000e+00 -1.000000e+00 0.000000e+00
      outer loop
         vertex 2.543177e+02 8.168282e+01 3.013338e+02
         vertex 2.543177e+02 8.168282e+01 2.842171e-14
         vertex 5.672787e+02 8.168282e+01 2.842171e-14
      endloop
   endfacet
   facet normal 0.000000e+00 -1.000000e+00 0.000000e+00
      outer loop
         vertex 2.543177e+02 8.168282e+01 3.013338e+02
         vertex 5.672787e+02 8.168282e+01 2.842171e-14
         vertex 5.672787e+02 8.168282e+01 3.013338e+02
      endloop
   endfacet
   facet normal 1.000000e+00 0.000000e+00 0.000000e+00
      outer loop
         vertex 5.672787e+02 8.168282e+01 3.013338e+02
         vertex 5.672787e+02 8.168282e+01 2.842171e-14
         vertex 5.672787e+02 3.733625e+02 2.842171e-14
      endloop
   endfacet
   facet normal 1.000000e+00 0.000000e+00 -0.000000e+00
      outer loop
         vertex 5.672787e+02 8.168282e+01 3.013338e+02
         vertex 5.672787e+02 3.733625e+02 2.842171e-14
         vertex 5.672787e+02 3.733625e+02 3.013338e+02
      endloop
   endfacet
   facet normal 0.000000e+00 1.000000e+00 -0.000000e+00
      outer loop
         vertex 5.672787e+02 3.733625e+02 3.013338e+02
         vertex 5.672787e+02 3.733625e+02 2.842171e-14
         vertex 2.543177e+02 3.733625e+02 2.842171e-14
      endloop
   endfacet
   facet normal 0.000000e+00 1.000000e+00 0.000000e+00
      outer loop
         vertex 5.672787e+02 3.733625e+02 3.013338e+02
         vertex 2.543177e+02 3.733625e+02 2.842171e-14
         vertex 2.543177e+02 3.733625e+02 3.013338e+02
      endloop
   endfacet
   facet normal -1.000000e+00 0.000000e+00 0.000000e+00
      outer loop
         vertex 2.543177e+02 3.733625e+02 3.013338e+02
         vertex 2.543177e+02 3.733625e+02 2.842171e-14
         vertex 2.543177e+02 8.168282e+01 2.842171e-14
      endloop
   endfacet
   facet normal -1.000000e+00 0.000000e+00 0.000000e+00
      outer loop
         vertex 2.543177e+02 3.733625e+02 3.013338e+02
         vertex 2.543177e+02 8.168282e+01 2.842171e-14
         vertex 2.543177e+02 8.168282e+01 3.013338e+02
      endloop
   endfacet
endsolid
