solid 
   facet normal 3.745213e-01 -2.104890e-01 -9.030106e-01
      outer loop
         vertex 3.845095e+02 4.566101e+02 6.000000e+01
         vertex 2.943113e+02 2.961213e+02 6.000000e+01
         vertex 1.515260e+02 2.994682e+02 1.421085e-14
      endloop
   endfacet
endsolid
solid 
   facet normal 3.819233e-01 -2.238861e-01 -8.966658e-01
      outer loop
         vertex 3.845095e+02 4.566101e+02 6.000000e+01
         vertex 1.515260e+02 2.994682e+02 -8.526513e-14
         vertex 3.169473e+02 5.816575e+02 7.105427e-15
      endloop
   endfacet
endsolid
solid 
   facet normal 3.801956e-01 2.202068e-01 -8.983097e-01
      outer loop
         vertex 3.881996e+02 1.377630e+02 6.000000e+01
         vertex 3.153051e+02 1.885489e+01 4.263256e-14
         vertex 1.528039e+02 2.994196e+02 8.881784e-15
      endloop
   endfacet
endsolid
solid 
   facet normal 3.845822e-01 2.280131e-01 -8.944868e-01
      outer loop
         vertex 3.881996e+02 1.377630e+02 6.000000e+01
         vertex 1.528039e+02 2.994196e+02 -7.105427e-15
         vertex 2.943113e+02 2.961213e+02 6.000000e+01
      endloop
   endfacet
endsolid
solid 
   facet normal 5.272249e-03 4.327514e-01 -9.014979e-01
      outer loop
         vertex 5.722861e+02 1.398936e+02 6.000000e+01
         vertex 6.397138e+02 1.408145e+01 -5.329071e-15
         vertex 3.161364e+02 1.802362e+01 3.552714e-15
      endloop
   endfacet
endsolid
solid 
   facet normal -5.213766e-03 4.504919e-01 -8.927653e-01
      outer loop
         vertex 5.722861e+02 1.398936e+02 6.000000e+01
         vertex 3.161364e+02 1.802362e+01 -7.105427e-15
         vertex 3.881996e+02 1.377630e+02 6.000000e+01
      endloop
   endfacet
endsolid
solid 
   facet normal -3.754633e-01 2.190881e-01 -9.005708e-01
      outer loop
         vertex 6.624843e+02 3.003824e+02 6.000000e+01
         vertex 8.042195e+02 2.966494e+02 4.618528e-14
         vertex 6.401189e+02 1.542114e+01 2.131628e-14
      endloop
   endfacet
endsolid
solid 
   facet normal -3.895534e-01 2.189374e-01 -8.946030e-01
      outer loop
         vertex 6.624843e+02 3.003824e+02 6.000000e+01
         vertex 6.401189e+02 1.542114e+01 0.000000e+00
         vertex 5.722861e+02 1.398936e+02 6.000000e+01
      endloop
   endfacet
endsolid
solid 
   facet normal -3.823706e-01 -2.205032e-01 -8.973132e-01
      outer loop
         vertex 6.425590e+02 5.790977e+02 5.684342e-14
         vertex 8.054396e+02 2.966494e+02 4.973799e-14
         vertex 6.624843e+02 3.003824e+02 6.000000e+01
      endloop
   endfacet
endsolid
solid 
   facet normal -3.722213e-01 -2.206845e-01 -9.015263e-01
      outer loop
         vertex 6.425590e+02 5.790977e+02 2.131628e-14
         vertex 6.624843e+02 3.003824e+02 6.000000e+01
         vertex 5.685959e+02 4.587406e+02 6.000000e+01
      endloop
   endfacet
endsolid
solid 
   facet normal -6.391282e-04 -4.377919e-01 -8.990761e-01
      outer loop
         vertex 3.186282e+02 5.823252e+02 4.973799e-14
         vertex 6.435603e+02 5.818508e+02 4.973799e-14
         vertex 5.685959e+02 4.587406e+02 6.000000e+01
      endloop
   endfacet
endsolid
solid 
   facet normal 4.960442e-03 -4.286036e-01 -9.034790e-01
      outer loop
         vertex 3.186282e+02 5.823252e+02 7.105427e-14
         vertex 5.685959e+02 4.587406e+02 6.000000e+01
         vertex 3.845095e+02 4.566101e+02 6.000000e+01
      endloop
   endfacet
endsolid
