solid 
   facet normal 0.000000e+00 0.000000e+00 1.000000e+00
      outer loop
         vertex 1.682190e+02 4.188141e+02 1.910088e+02
         vertex 1.622098e+02 3.808736e+02 1.910088e+02
         vertex 1.856583e+02 4.530407e+02 1.910088e+02
      endloop
   endfacet
   facet normal 0.000000e+00 -0.000000e+00 1.000000e+00
      outer loop
         vertex 1.622098e+02 3.808736e+02 1.910088e+02
         vertex 1.682190e+02 3.429330e+02 1.910088e+02
         vertex 1.856583e+02 4.530407e+02 1.910088e+02
      endloop
   endfacet
   facet normal 0.000000e+00 0.000000e+00 1.000000e+00
      outer loop
         vertex 1.856583e+02 4.530407e+02 1.910088e+02
         vertex 1.682190e+02 3.429330e+02 1.910088e+02
         vertex 2.128207e+02 4.802031e+02 1.910088e+02
      endloop
   endfacet
   facet normal 0.000000e+00 -0.000000e+00 1.000000e+00
      outer loop
         vertex 1.682190e+02 3.429330e+02 1.910088e+02
         vertex 1.856583e+02 3.087064e+02 1.910088e+02
         vertex 2.128207e+02 4.802031e+02 1.910088e+02
      endloop
   endfacet
   facet normal 0.000000e+00 0.000000e+00 1.000000e+00
      outer loop
         vertex 2.128207e+02 4.802031e+02 1.910088e+02
         vertex 1.856583e+02 3.087064e+02 1.910088e+02
         vertex 2.470474e+02 4.976425e+02 1.910088e+02
      endloop
   endfacet
   facet normal 0.000000e+00 -0.000000e+00 1.000000e+00
      outer loop
         vertex 1.856583e+02 3.087064e+02 1.910088e+02
         vertex 2.128207e+02 2.815440e+02 1.910088e+02
         vertex 2.470474e+02 4.976425e+02 1.910088e+02
      endloop
   endfacet
   facet normal 0.000000e+00 0.000000e+00 1.000000e+00
      outer loop
         vertex 2.470474e+02 4.976425e+02 1.910088e+02
         vertex 2.128207e+02 2.815440e+02 1.910088e+02
         vertex 2.849879e+02 5.036516e+02 1.910088e+02
      endloop
   endfacet
   facet normal 0.000000e+00 -0.000000e+00 1.000000e+00
      outer loop
         vertex 2.128207e+02 2.815440e+02 1.910088e+02
         vertex 2.470474e+02 2.641046e+02 1.910088e+02
         vertex 2.849879e+02 5.036516e+02 1.910088e+02
      endloop
   endfacet
   facet normal 0.000000e+00 0.000000e+00 1.000000e+00
      outer loop
         vertex 2.849879e+02 5.036516e+02 1.910088e+02
         vertex 2.470474e+02 2.641046e+02 1.910088e+02
         vertex 3.229284e+02 4.976425e+02 1.910088e+02
      endloop
   endfacet
   facet normal 0.000000e+00 -0.000000e+00 1.000000e+00
      outer loop
         vertex 2.470474e+02 2.641046e+02 1.910088e+02
         vertex 2.849879e+02 2.580955e+02 1.910088e+02
         vertex 3.229284e+02 4.976425e+02 1.910088e+02
      endloop
   endfacet
   facet normal 0.000000e+00 0.000000e+00 1.000000e+00
      outer loop
         vertex 3.229284e+02 4.976425e+02 1.910088e+02
         vertex 2.849879e+02 2.580955e+02 1.910088e+02
         vertex 3.571550e+02 4.802031e+02 1.910088e+02
      endloop
   endfacet
   facet normal 0.000000e+00 -0.000000e+00 1.000000e+00
      outer loop
         vertex 2.849879e+02 2.580955e+02 1.910088e+02
         vertex 3.229284e+02 2.641046e+02 1.910088e+02
         vertex 3.571550e+02 4.802031e+02 1.910088e+02
      endloop
   endfacet
   facet normal 0.000000e+00 0.000000e+00 1.000000e+00
      outer loop
         vertex 3.571550e+02 4.802031e+02 1.910088e+02
         vertex 3.229284e+02 2.641046e+02 1.910088e+02
         vertex 3.843174e+02 4.530407e+02 1.910088e+02
      endloop
   endfacet
   facet normal 0.000000e+00 -0.000000e+00 1.000000e+00
      outer loop
         vertex 3.229284e+02 2.641046e+02 1.910088e+02
         vertex 3.571550e+02 2.815440e+02 1.910088e+02
         vertex 3.843174e+02 4.530407e+02 1.910088e+02
      endloop
   endfacet
   facet normal 0.000000e+00 0.000000e+00 1.000000e+00
      outer loop
         vertex 3.843174e+02 4.530407e+02 1.910088e+02
         vertex 3.571550e+02 2.815440e+02 1.910088e+02
         vertex 4.017568e+02 4.188141e+02 1.910088e+02
      endloop
   endfacet
   facet normal 0.000000e+00 -0.000000e+00 1.000000e+00
      outer loop
         vertex 3.571550e+02 2.815440e+02 1.910088e+02
         vertex 3.843174e+02 3.087064e+02 1.910088e+02
         vertex 4.017568e+02 4.188141e+02 1.910088e+02
      endloop
   endfacet
   facet normal 0.000000e+00 0.000000e+00 1.000000e+00
      outer loop
         vertex 4.017568e+02 4.188141e+02 1.910088e+02
         vertex 3.843174e+02 3.087064e+02 1.910088e+02
         vertex 4.077660e+02 3.808736e+02 1.910088e+02
      endloop
   endfacet
   facet normal 0.000000e+00 -0.000000e+00 1.000000e+00
      outer loop
         vertex 3.843174e+02 3.087064e+02 1.910088e+02
         vertex 4.017568e+02 3.429330e+02 1.910088e+02
         vertex 4.077660e+02 3.808736e+02 1.910088e+02
      endloop
   endfacet
   facet normal -9.876884e-01 -1.564344e-01 0.000000e+00
      outer loop
         vertex 1.622098e+02 3.808736e+02 0.000000e+00
         vertex 1.682190e+02 3.429330e+02 0.000000e+00
         vertex 1.682190e+02 3.429330e+02 1.910088e+02
      endloop
   endfacet
   facet normal -9.876884e-01 -1.564344e-01 0.000000e+00
      outer loop
         vertex 1.622098e+02 3.808736e+02 0.000000e+00
         vertex 1.682190e+02 3.429330e+02 1.910088e+02
         vertex 1.622098e+02 3.808736e+02 1.910088e+02
      endloop
   endfacet
   facet normal -8.910066e-01 -4.539904e-01 0.000000e+00
      outer loop
         vertex 1.682190e+02 3.429330e+02 0.000000e+00
         vertex 1.856583e+02 3.087064e+02 0.000000e+00
         vertex 1.856583e+02 3.087064e+02 1.910088e+02
      endloop
   endfacet
   facet normal -8.910066e-01 -4.539904e-01 0.000000e+00
      outer loop
         vertex 1.682190e+02 3.429330e+02 0.000000e+00
         vertex 1.856583e+02 3.087064e+02 1.910088e+02
         vertex 1.682190e+02 3.429330e+02 1.910088e+02
      endloop
   endfacet
   facet normal -7.071068e-01 -7.071068e-01 0.000000e+00
      outer loop
         vertex 1.856583e+02 3.087064e+02 0.000000e+00
         vertex 2.128207e+02 2.815440e+02 0.000000e+00
         vertex 2.128207e+02 2.815440e+02 1.910088e+02
      endloop
   endfacet
   facet normal -7.071068e-01 -7.071068e-01 0.000000e+00
      outer loop
         vertex 1.856583e+02 3.087064e+02 0.000000e+00
         vertex 2.128207e+02 2.815440e+02 1.910088e+02
         vertex 1.856583e+02 3.087064e+02 1.910088e+02
      endloop
   endfacet
   facet normal -4.539910e-01 -8.910063e-01 0.000000e+00
      outer loop
         vertex 2.128207e+02 2.815440e+02 0.000000e+00
         vertex 2.470474e+02 2.641046e+02 0.000000e+00
         vertex 2.470474e+02 2.641046e+02 1.910088e+02
      endloop
   endfacet
   facet normal -4.539910e-01 -8.910063e-01 0.000000e+00
      outer loop
         vertex 2.128207e+02 2.815440e+02 0.000000e+00
         vertex 2.470474e+02 2.641046e+02 1.910088e+02
         vertex 2.128207e+02 2.815440e+02 1.910088e+02
      endloop
   endfacet
   facet normal -1.564344e-01 -9.876884e-01 0.000000e+00
      outer loop
         vertex 2.470474e+02 2.641046e+02 0.000000e+00
         vertex 2.849879e+02 2.580955e+02 0.000000e+00
         vertex 2.849879e+02 2.580955e+02 1.910088e+02
      endloop
   endfacet
   facet normal -1.564344e-01 -9.876884e-01 0.000000e+00
      outer loop
         vertex 2.470474e+02 2.641046e+02 0.000000e+00
         vertex 2.849879e+02 2.580955e+02 1.910088e+02
         vertex 2.470474e+02 2.641046e+02 1.910088e+02
      endloop
   endfacet
   facet normal 1.564344e-01 -9.876884e-01 0.000000e+00
      outer loop
         vertex 2.849879e+02 2.580955e+02 0.000000e+00
         vertex 3.229284e+02 2.641046e+02 0.000000e+00
         vertex 3.229284e+02 2.641046e+02 1.910088e+02
      endloop
   endfacet
   facet normal 1.564344e-01 -9.876884e-01 0.000000e+00
      outer loop
         vertex 2.849879e+02 2.580955e+02 0.000000e+00
         vertex 3.229284e+02 2.641046e+02 1.910088e+02
         vertex 2.849879e+02 2.580955e+02 1.910088e+02
      endloop
   endfacet
   facet normal 4.539910e-01 -8.910063e-01 0.000000e+00
      outer loop
         vertex 3.229284e+02 2.641046e+02 0.000000e+00
         vertex 3.571550e+02 2.815440e+02 0.000000e+00
         vertex 3.571550e+02 2.815440e+02 1.910088e+02
      endloop
   endfacet
   facet normal 4.539910e-01 -8.910063e-01 0.000000e+00
      outer loop
         vertex 3.229284e+02 2.641046e+02 0.000000e+00
         vertex 3.571550e+02 2.815440e+02 1.910088e+02
         vertex 3.229284e+02 2.641046e+02 1.910088e+02
      endloop
   endfacet
   facet normal 7.071068e-01 -7.071068e-01 0.000000e+00
      outer loop
         vertex 3.571550e+02 2.815440e+02 0.000000e+00
         vertex 3.843174e+02 3.087064e+02 0.000000e+00
         vertex 3.843174e+02 3.087064e+02 1.910088e+02
      endloop
   endfacet
   facet normal 7.071068e-01 -7.071068e-01 0.000000e+00
      outer loop
         vertex 3.571550e+02 2.815440e+02 0.000000e+00
         vertex 3.843174e+02 3.087064e+02 1.910088e+02
         vertex 3.571550e+02 2.815440e+02 1.910088e+02
      endloop
   endfacet
   facet normal 8.910066e-01 -4.539904e-01 0.000000e+00
      outer loop
         vertex 3.843174e+02 3.087064e+02 0.000000e+00
         vertex 4.017568e+02 3.429330e+02 0.000000e+00
         vertex 4.017568e+02 3.429330e+02 1.910088e+02
      endloop
   endfacet
   facet normal 8.910066e-01 -4.539904e-01 0.000000e+00
      outer loop
         vertex 3.843174e+02 3.087064e+02 0.000000e+00
         vertex 4.017568e+02 3.429330e+02 1.910088e+02
         vertex 3.843174e+02 3.087064e+02 1.910088e+02
      endloop
   endfacet
   facet normal 9.876884e-01 -1.564344e-01 0.000000e+00
      outer loop
         vertex 4.017568e+02 3.429330e+02 0.000000e+00
         vertex 4.077660e+02 3.808736e+02 0.000000e+00
         vertex 4.077660e+02 3.808736e+02 1.910088e+02
      endloop
   endfacet
   facet normal 9.876884e-01 -1.564344e-01 0.000000e+00
      outer loop
         vertex 4.017568e+02 3.429330e+02 0.000000e+00
         vertex 4.077660e+02 3.808736e+02 1.910088e+02
         vertex 4.017568e+02 3.429330e+02 1.910088e+02
      endloop
   endfacet
   facet normal 9.876883e-01 1.564345e-01 -0.000000e+00
      outer loop
         vertex 4.077660e+02 3.808736e+02 0.000000e+00
         vertex 4.017568e+02 4.188141e+02 0.000000e+00
         vertex 4.017568e+02 4.188141e+02 1.910088e+02
      endloop
   endfacet
   facet normal 9.876883e-01 1.564345e-01 0.000000e+00
      outer loop
         vertex 4.077660e+02 3.808736e+02 0.000000e+00
         vertex 4.017568e+02 4.188141e+02 1.910088e+02
         vertex 4.077660e+02 3.808736e+02 1.910088e+02
      endloop
   endfacet
   facet normal 8.910067e-01 4.539901e-01 -0.000000e+00
      outer loop
         vertex 4.017568e+02 4.188141e+02 0.000000e+00
         vertex 3.843174e+02 4.530407e+02 0.000000e+00
         vertex 3.843174e+02 4.530407e+02 1.910088e+02
      endloop
   endfacet
   facet normal 8.910067e-01 4.539901e-01 0.000000e+00
      outer loop
         vertex 4.017568e+02 4.188141e+02 0.000000e+00
         vertex 3.843174e+02 4.530407e+02 1.910088e+02
         vertex 4.017568e+02 4.188141e+02 1.910088e+02
      endloop
   endfacet
   facet normal 7.071064e-01 7.071072e-01 -0.000000e+00
      outer loop
         vertex 3.843174e+02 4.530407e+02 0.000000e+00
         vertex 3.571550e+02 4.802031e+02 0.000000e+00
         vertex 3.571550e+02 4.802031e+02 1.910088e+02
      endloop
   endfacet
   facet normal 7.071064e-01 7.071072e-01 0.000000e+00
      outer loop
         vertex 3.843174e+02 4.530407e+02 0.000000e+00
         vertex 3.571550e+02 4.802031e+02 1.910088e+02
         vertex 3.843174e+02 4.530407e+02 1.910088e+02
      endloop
   endfacet
   facet normal 4.539910e-01 8.910063e-01 -0.000000e+00
      outer loop
         vertex 3.571550e+02 4.802031e+02 0.000000e+00
         vertex 3.229284e+02 4.976425e+02 0.000000e+00
         vertex 3.229284e+02 4.976425e+02 1.910088e+02
      endloop
   endfacet
   facet normal 4.539910e-01 8.910063e-01 0.000000e+00
      outer loop
         vertex 3.571550e+02 4.802031e+02 0.000000e+00
         vertex 3.229284e+02 4.976425e+02 1.910088e+02
         vertex 3.571550e+02 4.802031e+02 1.910088e+02
      endloop
   endfacet
   facet normal 1.564344e-01 9.876884e-01 -0.000000e+00
      outer loop
         vertex 3.229284e+02 4.976425e+02 0.000000e+00
         vertex 2.849879e+02 5.036516e+02 0.000000e+00
         vertex 2.849879e+02 5.036516e+02 1.910088e+02
      endloop
   endfacet
   facet normal 1.564344e-01 9.876884e-01 0.000000e+00
      outer loop
         vertex 3.229284e+02 4.976425e+02 0.000000e+00
         vertex 2.849879e+02 5.036516e+02 1.910088e+02
         vertex 3.229284e+02 4.976425e+02 1.910088e+02
      endloop
   endfacet
   facet normal -1.564344e-01 9.876884e-01 0.000000e+00
      outer loop
         vertex 2.849879e+02 5.036516e+02 0.000000e+00
         vertex 2.470474e+02 4.976425e+02 0.000000e+00
         vertex 2.470474e+02 4.976425e+02 1.910088e+02
      endloop
   endfacet
   facet normal -1.564344e-01 9.876884e-01 0.000000e+00
      outer loop
         vertex 2.849879e+02 5.036516e+02 0.000000e+00
         vertex 2.470474e+02 4.976425e+02 1.910088e+02
         vertex 2.849879e+02 5.036516e+02 1.910088e+02
      endloop
   endfacet
   facet normal -4.539910e-01 8.910063e-01 0.000000e+00
      outer loop
         vertex 2.470474e+02 4.976425e+02 0.000000e+00
         vertex 2.128207e+02 4.802031e+02 0.000000e+00
         vertex 2.128207e+02 4.802031e+02 1.910088e+02
      endloop
   endfacet
   facet normal -4.539910e-01 8.910063e-01 0.000000e+00
      outer loop
         vertex 2.470474e+02 4.976425e+02 0.000000e+00
         vertex 2.128207e+02 4.802031e+02 1.910088e+02
         vertex 2.470474e+02 4.976425e+02 1.910088e+02
      endloop
   endfacet
   facet normal -7.071064e-01 7.071072e-01 0.000000e+00
      outer loop
         vertex 2.128207e+02 4.802031e+02 0.000000e+00
         vertex 1.856583e+02 4.530407e+02 0.000000e+00
         vertex 1.856583e+02 4.530407e+02 1.910088e+02
      endloop
   endfacet
   facet normal -7.071064e-01 7.071072e-01 0.000000e+00
      outer loop
         vertex 2.128207e+02 4.802031e+02 0.000000e+00
         vertex 1.856583e+02 4.530407e+02 1.910088e+02
         vertex 2.128207e+02 4.802031e+02 1.910088e+02
      endloop
   endfacet
   facet normal -8.910067e-01 4.539901e-01 0.000000e+00
      outer loop
         vertex 1.856583e+02 4.530407e+02 0.000000e+00
         vertex 1.682190e+02 4.188141e+02 0.000000e+00
         vertex 1.682190e+02 4.188141e+02 1.910088e+02
      endloop
   endfacet
   facet normal -8.910067e-01 4.539901e-01 0.000000e+00
      outer loop
         vertex 1.856583e+02 4.530407e+02 0.000000e+00
         vertex 1.682190e+02 4.188141e+02 1.910088e+02
         vertex 1.856583e+02 4.530407e+02 1.910088e+02
      endloop
   endfacet
   facet normal -9.876883e-01 1.564345e-01 0.000000e+00
      outer loop
         vertex 1.682190e+02 4.188141e+02 0.000000e+00
         vertex 1.622098e+02 3.808736e+02 0.000000e+00
         vertex 1.622098e+02 3.808736e+02 1.910088e+02
      endloop
   endfacet
   facet normal -9.876883e-01 1.564345e-01 0.000000e+00
      outer loop
         vertex 1.682190e+02 4.188141e+02 0.000000e+00
         vertex 1.622098e+02 3.808736e+02 1.910088e+02
         vertex 1.682190e+02 4.188141e+02 1.910088e+02
      endloop
   endfacet
   facet normal 0.000000e+00 0.000000e+00 -1.000000e+00
      outer loop
         vertex 1.682190e+02 3.429330e+02 0.000000e+00
         vertex 1.622098e+02 3.808736e+02 0.000000e+00
         vertex 1.856583e+02 3.087064e+02 0.000000e+00
      endloop
   endfacet
   facet normal 0.000000e+00 -0.000000e+00 -1.000000e+00
      outer loop
         vertex 1.622098e+02 3.808736e+02 0.000000e+00
         vertex 1.682190e+02 4.188141e+02 0.000000e+00
         vertex 1.856583e+02 3.087064e+02 0.000000e+00
      endloop
   endfacet
   facet normal 0.000000e+00 0.000000e+00 -1.000000e+00
      outer loop
         vertex 1.856583e+02 3.087064e+02 0.000000e+00
         vertex 1.682190e+02 4.188141e+02 0.000000e+00
         vertex 2.128207e+02 2.815440e+02 0.000000e+00
      endloop
   endfacet
   facet normal 0.000000e+00 -0.000000e+00 -1.000000e+00
      outer loop
         vertex 1.682190e+02 4.188141e+02 0.000000e+00
         vertex 1.856583e+02 4.530407e+02 0.000000e+00
         vertex 2.128207e+02 2.815440e+02 0.000000e+00
      endloop
   endfacet
   facet normal 0.000000e+00 0.000000e+00 -1.000000e+00
      outer loop
         vertex 2.128207e+02 2.815440e+02 0.000000e+00
         vertex 1.856583e+02 4.530407e+02 0.000000e+00
         vertex 2.470474e+02 2.641046e+02 0.000000e+00
      endloop
   endfacet
   facet normal 0.000000e+00 -0.000000e+00 -1.000000e+00
      outer loop
         vertex 1.856583e+02 4.530407e+02 0.000000e+00
         vertex 2.128207e+02 4.802031e+02 0.000000e+00
         vertex 2.470474e+02 2.641046e+02 0.000000e+00
      endloop
   endfacet
   facet normal 0.000000e+00 0.000000e+00 -1.000000e+00
      outer loop
         vertex 2.470474e+02 2.641046e+02 0.000000e+00
         vertex 2.128207e+02 4.802031e+02 0.000000e+00
         vertex 2.849879e+02 2.580955e+02 0.000000e+00
      endloop
   endfacet
   facet normal 0.000000e+00 -0.000000e+00 -1.000000e+00
      outer loop
         vertex 2.128207e+02 4.802031e+02 0.000000e+00
         vertex 2.470474e+02 4.976425e+02 0.000000e+00
         vertex 2.849879e+02 2.580955e+02 0.000000e+00
      endloop
   endfacet
   facet normal 0.000000e+00 0.000000e+00 -1.000000e+00
      outer loop
         vertex 2.849879e+02 2.580955e+02 0.000000e+00
         vertex 2.470474e+02 4.976425e+02 0.000000e+00
         vertex 3.229284e+02 2.641046e+02 0.000000e+00
      endloop
   endfacet
   facet normal 0.000000e+00 -0.000000e+00 -1.000000e+00
      outer loop
         vertex 2.470474e+02 4.976425e+02 0.000000e+00
         vertex 2.849879e+02 5.036516e+02 0.000000e+00
         vertex 3.229284e+02 2.641046e+02 0.000000e+00
      endloop
   endfacet
   facet normal 0.000000e+00 0.000000e+00 -1.000000e+00
      outer loop
         vertex 3.229284e+02 2.641046e+02 0.000000e+00
         vertex 2.849879e+02 5.036516e+02 0.000000e+00
         vertex 3.571550e+02 2.815440e+02 0.000000e+00
      endloop
   endfacet
   facet normal -0.000000e+00 -0.000000e+00 -1.000000e+00
      outer loop
         vertex 2.849879e+02 5.036516e+02 0.000000e+00
         vertex 3.229284e+02 4.976425e+02 0.000000e+00
         vertex 3.571550e+02 2.815440e+02 0.000000e+00
      endloop
   endfacet
   facet normal 0.000000e+00 0.000000e+00 -1.000000e+00
      outer loop
         vertex 3.571550e+02 2.815440e+02 0.000000e+00
         vertex 3.229284e+02 4.976425e+02 0.000000e+00
         vertex 3.843174e+02 3.087064e+02 0.000000e+00
      endloop
   endfacet
   facet normal -0.000000e+00 -0.000000e+00 -1.000000e+00
      outer loop
         vertex 3.229284e+02 4.976425e+02 0.000000e+00
         vertex 3.571550e+02 4.802031e+02 0.000000e+00
         vertex 3.843174e+02 3.087064e+02 0.000000e+00
      endloop
   endfacet
   facet normal 0.000000e+00 0.000000e+00 -1.000000e+00
      outer loop
         vertex 3.843174e+02 3.087064e+02 0.000000e+00
         vertex 3.571550e+02 4.802031e+02 0.000000e+00
         vertex 4.017568e+02 3.429330e+02 0.000000e+00
      endloop
   endfacet
   facet normal -0.000000e+00 -0.000000e+00 -1.000000e+00
      outer loop
         vertex 3.571550e+02 4.802031e+02 0.000000e+00
         vertex 3.843174e+02 4.530407e+02 0.000000e+00
         vertex 4.017568e+02 3.429330e+02 0.000000e+00
      endloop
   endfacet
   facet normal 0.000000e+00 0.000000e+00 -1.000000e+00
      outer loop
         vertex 4.017568e+02 3.429330e+02 0.000000e+00
         vertex 3.843174e+02 4.530407e+02 0.000000e+00
         vertex 4.077660e+02 3.808736e+02 0.000000e+00
      endloop
   endfacet
   facet normal -0.000000e+00 -0.000000e+00 -1.000000e+00
      outer loop
         vertex 3.843174e+02 4.530407e+02 0.000000e+00
         vertex 4.017568e+02 4.188141e+02 0.000000e+00
         vertex 4.077660e+02 3.808736e+02 0.000000e+00
      endloop
   endfacet
endsolid
solid 
   facet normal 0.000000e+00 0.000000e+00 0.000000e+00
      outer loop
         vertex 2.877591e+02 3.816653e+02 2.776249e+02
         vertex 1.592044e+02 3.816653e+02 1.910088e+02
         vertex 2.877591e+02 3.816653e+02 2.776249e+02
      endloop
   endfacet
   facet normal -5.565957e-01 -8.815611e-02 8.260931e-01
      outer loop
         vertex 1.592044e+02 3.816653e+02 1.910088e+02
         vertex 1.654963e+02 3.419398e+02 1.910088e+02
         vertex 2.877591e+02 3.816653e+02 2.776249e+02
      endloop
   endfacet
   facet normal -5.021122e-01 -2.558390e-01 8.260931e-01
      outer loop
         vertex 1.654963e+02 3.419398e+02 1.910088e+02
         vertex 1.837562e+02 3.061028e+02 1.910088e+02
         vertex 2.877591e+02 3.816653e+02 2.776249e+02
      endloop
   endfacet
   facet normal -3.984785e-01 -3.984785e-01 8.260931e-01
      outer loop
         vertex 1.837562e+02 3.061028e+02 1.910088e+02
         vertex 2.121966e+02 2.776624e+02 1.910088e+02
         vertex 2.877591e+02 3.816653e+02 2.776249e+02
      endloop
   endfacet
   facet normal -2.558390e-01 -5.021122e-01 8.260931e-01
      outer loop
         vertex 2.121966e+02 2.776624e+02 1.910088e+02
         vertex 2.480335e+02 2.594026e+02 1.910088e+02
         vertex 2.877591e+02 3.816653e+02 2.776249e+02
      endloop
   endfacet
   facet normal -8.815611e-02 -5.565957e-01 8.260931e-01
      outer loop
         vertex 2.480335e+02 2.594026e+02 1.910088e+02
         vertex 2.877591e+02 2.531106e+02 1.910088e+02
         vertex 2.877591e+02 3.816653e+02 2.776249e+02
      endloop
   endfacet
   facet normal 8.815611e-02 -5.565957e-01 8.260931e-01
      outer loop
         vertex 2.877591e+02 2.531106e+02 1.910088e+02
         vertex 3.274847e+02 2.594026e+02 1.910088e+02
         vertex 2.877591e+02 3.816653e+02 2.776249e+02
      endloop
   endfacet
   facet normal 2.558390e-01 -5.021122e-01 8.260931e-01
      outer loop
         vertex 3.274847e+02 2.594026e+02 1.910088e+02
         vertex 3.633217e+02 2.776624e+02 1.910088e+02
         vertex 2.877591e+02 3.816653e+02 2.776249e+02
      endloop
   endfacet
   facet normal 3.984785e-01 -3.984785e-01 8.260931e-01
      outer loop
         vertex 3.633217e+02 2.776624e+02 1.910088e+02
         vertex 3.917621e+02 3.061028e+02 1.910088e+02
         vertex 2.877591e+02 3.816653e+02 2.776249e+02
      endloop
   endfacet
   facet normal 5.021122e-01 -2.558390e-01 8.260931e-01
      outer loop
         vertex 3.917621e+02 3.061028e+02 1.910088e+02
         vertex 4.100219e+02 3.419398e+02 1.910088e+02
         vertex 2.877591e+02 3.816653e+02 2.776249e+02
      endloop
   endfacet
   facet normal 5.565957e-01 -8.815590e-02 8.260931e-01
      outer loop
         vertex 4.100219e+02 3.419398e+02 1.910088e+02
         vertex 4.163138e+02 3.816653e+02 1.910088e+02
         vertex 2.877591e+02 3.816653e+02 2.776249e+02
      endloop
   endfacet
   facet normal 5.565957e-01 8.815590e-02 8.260931e-01
      outer loop
         vertex 4.163138e+02 3.816653e+02 1.910088e+02
         vertex 4.100219e+02 4.213909e+02 1.910088e+02
         vertex 2.877591e+02 3.816653e+02 2.776249e+02
      endloop
   endfacet
   facet normal 5.021121e-01 2.558392e-01 8.260931e-01
      outer loop
         vertex 4.100219e+02 4.213909e+02 1.910088e+02
         vertex 3.917621e+02 4.572279e+02 1.910088e+02
         vertex 2.877591e+02 3.816653e+02 2.776249e+02
      endloop
   endfacet
   facet normal 3.984787e-01 3.984783e-01 8.260930e-01
      outer loop
         vertex 3.917621e+02 4.572279e+02 1.910088e+02
         vertex 3.633217e+02 4.856683e+02 1.910088e+02
         vertex 2.877591e+02 3.816653e+02 2.776249e+02
      endloop
   endfacet
   facet normal 2.558387e-01 5.021124e-01 8.260930e-01
      outer loop
         vertex 3.633217e+02 4.856683e+02 1.910088e+02
         vertex 3.274847e+02 5.039281e+02 1.910088e+02
         vertex 2.877591e+02 3.816653e+02 2.776249e+02
      endloop
   endfacet
   facet normal 8.815633e-02 5.565957e-01 8.260930e-01
      outer loop
         vertex 3.274847e+02 5.039281e+02 1.910088e+02
         vertex 2.877591e+02 5.102200e+02 1.910088e+02
         vertex 2.877591e+02 3.816653e+02 2.776249e+02
      endloop
   endfacet
   facet normal -8.815633e-02 5.565957e-01 8.260930e-01
      outer loop
         vertex 2.877591e+02 5.102200e+02 1.910088e+02
         vertex 2.480335e+02 5.039281e+02 1.910088e+02
         vertex 2.877591e+02 3.816653e+02 2.776249e+02
      endloop
   endfacet
   facet normal -2.558387e-01 5.021124e-01 8.260930e-01
      outer loop
         vertex 2.480335e+02 5.039281e+02 1.910088e+02
         vertex 2.121966e+02 4.856683e+02 1.910088e+02
         vertex 2.877591e+02 3.816653e+02 2.776249e+02
      endloop
   endfacet
   facet normal -3.984787e-01 3.984783e-01 8.260930e-01
      outer loop
         vertex 2.121966e+02 4.856683e+02 1.910088e+02
         vertex 1.837562e+02 4.572279e+02 1.910088e+02
         vertex 2.877591e+02 3.816653e+02 2.776249e+02
      endloop
   endfacet
   facet normal -5.021121e-01 2.558392e-01 8.260931e-01
      outer loop
         vertex 1.837562e+02 4.572279e+02 1.910088e+02
         vertex 1.654963e+02 4.213909e+02 1.910088e+02
         vertex 2.877591e+02 3.816653e+02 2.776249e+02
      endloop
   endfacet
   facet normal -5.565957e-01 8.815611e-02 8.260931e-01
      outer loop
         vertex 1.654963e+02 4.213909e+02 1.910088e+02
         vertex 1.592044e+02 3.816653e+02 1.910088e+02
         vertex 2.877591e+02 3.816653e+02 2.776249e+02
      endloop
   endfacet
   facet normal -0.000000e+00 0.000000e+00 0.000000e+00
      outer loop
         vertex 1.592044e+02 3.816653e+02 1.910088e+02
         vertex 2.877591e+02 3.816653e+02 2.776249e+02
         vertex 2.877591e+02 3.816653e+02 2.776249e+02
      endloop
   endfacet
   facet normal 0.000000e+00 0.000000e+00 -0.000000e+00
      outer loop
         vertex 2.877591e+02 3.816653e+02 2.776249e+02
         vertex 2.877591e+02 3.816653e+02 2.776249e+02
         vertex 1.654963e+02 4.213909e+02 1.910088e+02
      endloop
   endfacet
   facet normal 0.000000e+00 0.000000e+00 -0.000000e+00
      outer loop
         vertex 2.877591e+02 3.816653e+02 2.776249e+02
         vertex 2.877591e+02 3.816653e+02 2.776249e+02
         vertex 1.837562e+02 4.572279e+02 1.910088e+02
      endloop
   endfacet
   facet normal 0.000000e+00 0.000000e+00 -0.000000e+00
      outer loop
         vertex 2.877591e+02 3.816653e+02 2.776249e+02
         vertex 2.877591e+02 3.816653e+02 2.776249e+02
         vertex 2.121966e+02 4.856683e+02 1.910088e+02
      endloop
   endfacet
   facet normal 0.000000e+00 0.000000e+00 -0.000000e+00
      outer loop
         vertex 2.877591e+02 3.816653e+02 2.776249e+02
         vertex 2.877591e+02 3.816653e+02 2.776249e+02
         vertex 2.480335e+02 5.039281e+02 1.910088e+02
      endloop
   endfacet
   facet normal 0.000000e+00 -0.000000e+00 0.000000e+00
      outer loop
         vertex 2.877591e+02 3.816653e+02 2.776249e+02
         vertex 2.877591e+02 3.816653e+02 2.776249e+02
         vertex 2.877591e+02 5.102200e+02 1.910088e+02
      endloop
   endfacet
   facet normal 0.000000e+00 -0.000000e+00 0.000000e+00
      outer loop
         vertex 2.877591e+02 3.816653e+02 2.776249e+02
         vertex 2.877591e+02 3.816653e+02 2.776249e+02
         vertex 3.274847e+02 5.039281e+02 1.910088e+02
      endloop
   endfacet
   facet normal 0.000000e+00 -0.000000e+00 0.000000e+00
      outer loop
         vertex 2.877591e+02 3.816653e+02 2.776249e+02
         vertex 2.877591e+02 3.816653e+02 2.776249e+02
         vertex 3.633217e+02 4.856683e+02 1.910088e+02
      endloop
   endfacet
   facet normal 0.000000e+00 -0.000000e+00 0.000000e+00
      outer loop
         vertex 2.877591e+02 3.816653e+02 2.776249e+02
         vertex 2.877591e+02 3.816653e+02 2.776249e+02
         vertex 3.917621e+02 4.572279e+02 1.910088e+02
      endloop
   endfacet
   facet normal 0.000000e+00 -0.000000e+00 0.000000e+00
      outer loop
         vertex 2.877591e+02 3.816653e+02 2.776249e+02
         vertex 2.877591e+02 3.816653e+02 2.776249e+02
         vertex 4.100219e+02 4.213909e+02 1.910088e+02
      endloop
   endfacet
   facet normal 0.000000e+00 -0.000000e+00 0.000000e+00
      outer loop
         vertex 2.877591e+02 3.816653e+02 2.776249e+02
         vertex 2.877591e+02 3.816653e+02 2.776249e+02
         vertex 4.163138e+02 3.816653e+02 1.910088e+02
      endloop
   endfacet
   facet normal 0.000000e+00 -0.000000e+00 0.000000e+00
      outer loop
         vertex 2.877591e+02 3.816653e+02 2.776249e+02
         vertex 2.877591e+02 3.816653e+02 2.776249e+02
         vertex 4.100219e+02 3.419398e+02 1.910088e+02
      endloop
   endfacet
   facet normal 0.000000e+00 -0.000000e+00 0.000000e+00
      outer loop
         vertex 2.877591e+02 3.816653e+02 2.776249e+02
         vertex 2.877591e+02 3.816653e+02 2.776249e+02
         vertex 3.917621e+02 3.061028e+02 1.910088e+02
      endloop
   endfacet
   facet normal 0.000000e+00 -0.000000e+00 0.000000e+00
      outer loop
         vertex 2.877591e+02 3.816653e+02 2.776249e+02
         vertex 2.877591e+02 3.816653e+02 2.776249e+02
         vertex 3.633217e+02 2.776624e+02 1.910088e+02
      endloop
   endfacet
   facet normal 0.000000e+00 -0.000000e+00 0.000000e+00
      outer loop
         vertex 2.877591e+02 3.816653e+02 2.776249e+02
         vertex 2.877591e+02 3.816653e+02 2.776249e+02
         vertex 3.274847e+02 2.594026e+02 1.910088e+02
      endloop
   endfacet
   facet normal 0.000000e+00 -0.000000e+00 0.000000e+00
      outer loop
         vertex 2.877591e+02 3.816653e+02 2.776249e+02
         vertex 2.877591e+02 3.816653e+02 2.776249e+02
         vertex 2.877591e+02 2.531106e+02 1.910088e+02
      endloop
   endfacet
   facet normal 0.000000e+00 0.000000e+00 0.000000e+00
      outer loop
         vertex 2.877591e+02 3.816653e+02 2.776249e+02
         vertex 2.877591e+02 3.816653e+02 2.776249e+02
         vertex 2.480335e+02 2.594026e+02 1.910088e+02
      endloop
   endfacet
   facet normal 0.000000e+00 0.000000e+00 0.000000e+00
      outer loop
         vertex 2.877591e+02 3.816653e+02 2.776249e+02
         vertex 2.877591e+02 3.816653e+02 2.776249e+02
         vertex 2.121966e+02 2.776624e+02 1.910088e+02
      endloop
   endfacet
   facet normal 0.000000e+00 0.000000e+00 0.000000e+00
      outer loop
         vertex 2.877591e+02 3.816653e+02 2.776249e+02
         vertex 2.877591e+02 3.816653e+02 2.776249e+02
         vertex 1.837562e+02 3.061028e+02 1.910088e+02
      endloop
   endfacet
   facet normal 0.000000e+00 0.000000e+00 0.000000e+00
      outer loop
         vertex 2.877591e+02 3.816653e+02 2.776249e+02
         vertex 2.877591e+02 3.816653e+02 2.776249e+02
         vertex 1.654963e+02 3.419398e+02 1.910088e+02
      endloop
   endfacet
   facet normal 0.000000e+00 0.000000e+00 -1.000000e+00
      outer loop
         vertex 1.654963e+02 3.419398e+02 1.910088e+02
         vertex 1.592044e+02 3.816653e+02 1.910088e+02
         vertex 1.837562e+02 3.061028e+02 1.910088e+02
      endloop
   endfacet
   facet normal 0.000000e+00 -0.000000e+00 -1.000000e+00
      outer loop
         vertex 1.592044e+02 3.816653e+02 1.910088e+02
         vertex 1.654963e+02 4.213909e+02 1.910088e+02
         vertex 1.837562e+02 3.061028e+02 1.910088e+02
      endloop
   endfacet
   facet normal 0.000000e+00 0.000000e+00 -1.000000e+00
      outer loop
         vertex 1.837562e+02 3.061028e+02 1.910088e+02
         vertex 1.654963e+02 4.213909e+02 1.910088e+02
         vertex 2.121966e+02 2.776624e+02 1.910088e+02
      endloop
   endfacet
   facet normal 0.000000e+00 -0.000000e+00 -1.000000e+00
      outer loop
         vertex 1.654963e+02 4.213909e+02 1.910088e+02
         vertex 1.837562e+02 4.572279e+02 1.910088e+02
         vertex 2.121966e+02 2.776624e+02 1.910088e+02
      endloop
   endfacet
   facet normal 0.000000e+00 0.000000e+00 -1.000000e+00
      outer loop
         vertex 2.121966e+02 2.776624e+02 1.910088e+02
         vertex 1.837562e+02 4.572279e+02 1.910088e+02
         vertex 2.480335e+02 2.594026e+02 1.910088e+02
      endloop
   endfacet
   facet normal 0.000000e+00 -0.000000e+00 -1.000000e+00
      outer loop
         vertex 1.837562e+02 4.572279e+02 1.910088e+02
         vertex 2.121966e+02 4.856683e+02 1.910088e+02
         vertex 2.480335e+02 2.594026e+02 1.910088e+02
      endloop
   endfacet
   facet normal 0.000000e+00 0.000000e+00 -1.000000e+00
      outer loop
         vertex 2.480335e+02 2.594026e+02 1.910088e+02
         vertex 2.121966e+02 4.856683e+02 1.910088e+02
         vertex 2.877591e+02 2.531106e+02 1.910088e+02
      endloop
   endfacet
   facet normal 0.000000e+00 -0.000000e+00 -1.000000e+00
      outer loop
         vertex 2.121966e+02 4.856683e+02 1.910088e+02
         vertex 2.480335e+02 5.039281e+02 1.910088e+02
         vertex 2.877591e+02 2.531106e+02 1.910088e+02
      endloop
   endfacet
   facet normal 0.000000e+00 0.000000e+00 -1.000000e+00
      outer loop
         vertex 2.877591e+02 2.531106e+02 1.910088e+02
         vertex 2.480335e+02 5.039281e+02 1.910088e+02
         vertex 3.274847e+02 2.594026e+02 1.910088e+02
      endloop
   endfacet
   facet normal 0.000000e+00 -0.000000e+00 -1.000000e+00
      outer loop
         vertex 2.480335e+02 5.039281e+02 1.910088e+02
         vertex 2.877591e+02 5.102200e+02 1.910088e+02
         vertex 3.274847e+02 2.594026e+02 1.910088e+02
      endloop
   endfacet
   facet normal 0.000000e+00 0.000000e+00 -1.000000e+00
      outer loop
         vertex 3.274847e+02 2.594026e+02 1.910088e+02
         vertex 2.877591e+02 5.102200e+02 1.910088e+02
         vertex 3.633217e+02 2.776624e+02 1.910088e+02
      endloop
   endfacet
   facet normal -0.000000e+00 -0.000000e+00 -1.000000e+00
      outer loop
         vertex 2.877591e+02 5.102200e+02 1.910088e+02
         vertex 3.274847e+02 5.039281e+02 1.910088e+02
         vertex 3.633217e+02 2.776624e+02 1.910088e+02
      endloop
   endfacet
   facet normal 0.000000e+00 0.000000e+00 -1.000000e+00
      outer loop
         vertex 3.633217e+02 2.776624e+02 1.910088e+02
         vertex 3.274847e+02 5.039281e+02 1.910088e+02
         vertex 3.917621e+02 3.061028e+02 1.910088e+02
      endloop
   endfacet
   facet normal -0.000000e+00 -0.000000e+00 -1.000000e+00
      outer loop
         vertex 3.274847e+02 5.039281e+02 1.910088e+02
         vertex 3.633217e+02 4.856683e+02 1.910088e+02
         vertex 3.917621e+02 3.061028e+02 1.910088e+02
      endloop
   endfacet
   facet normal 0.000000e+00 0.000000e+00 -1.000000e+00
      outer loop
         vertex 3.917621e+02 3.061028e+02 1.910088e+02
         vertex 3.633217e+02 4.856683e+02 1.910088e+02
         vertex 4.100219e+02 3.419398e+02 1.910088e+02
      endloop
   endfacet
   facet normal -0.000000e+00 -0.000000e+00 -1.000000e+00
      outer loop
         vertex 3.633217e+02 4.856683e+02 1.910088e+02
         vertex 3.917621e+02 4.572279e+02 1.910088e+02
         vertex 4.100219e+02 3.419398e+02 1.910088e+02
      endloop
   endfacet
   facet normal 0.000000e+00 0.000000e+00 -1.000000e+00
      outer loop
         vertex 4.100219e+02 3.419398e+02 1.910088e+02
         vertex 3.917621e+02 4.572279e+02 1.910088e+02
         vertex 4.163138e+02 3.816653e+02 1.910088e+02
      endloop
   endfacet
   facet normal -0.000000e+00 -0.000000e+00 -1.000000e+00
      outer loop
         vertex 3.917621e+02 4.572279e+02 1.910088e+02
         vertex 4.100219e+02 4.213909e+02 1.910088e+02
         vertex 4.163138e+02 3.816653e+02 1.910088e+02
      endloop
   endfacet
endsolid
